# xmcd
#
# Track frame offsets: 
#        150
#        13727
#        25997
#        42150
#        57430
#        73822
#        87197
#        100647
#        116815
#        132100
#        146957
#        163000
#        181035
#        195060
#        207355
#        219912
#        237300
#        250307
#        264075
#        281247
#        297677
#
# Disc length: 4193 seconds
#
# Revision: 0
# Processed by: cddbd v1.4PL0 Copyright (c) Steve Scherf et al.
# Submitted via: ExactAudioCopy v0.90b2
#
DISCID=39105f15
DTITLE=Louise Mandrell - Anthology
DYEAR=1900
DGENRE=Country
TTITLE0=Where There's Smoke There's Fire
TTITLE1=(You Sure Know Your Way) Around My Heart
TTITLE2=Some Of My Best Friends Are Old Songs
TTITLE3=Save Me
TTITLE4=Too Hot To Sleep
TTITLE5=I'm Not Through Loving You Yet
TTITLE6=Goodbye Heartache
TTITLE7=This Bed's Not Big Enough
TTITLE8=I Wanna Say Yes
TTITLE9=Do I Have To Say Goodbye
TTITLE10=Tender Time
TTITLE11=As Long As We Got Each Other
TTITLE12=Maybe My Baby
TTITLE13=Runaway Heart
TTITLE14=Romance
TTITLE15=Some Girls Have All The Luck
TTITLE16=I Wanna Hear It From Your Lips
TTITLE17=Our Wedding Band
TTITLE18=Christmas Is Just A Song For Us This Year
TTITLE19=Reunited
TTITLE20=Jean Paul
EXTD=
EXTT0=
EXTT1=
EXTT2=
EXTT3=
EXTT4=
EXTT5=
EXTT6=
EXTT7=
EXTT8=
EXTT9=
EXTT10=
EXTT11=
EXTT12=
EXTT13=
EXTT14=
EXTT15=
EXTT16=
EXTT17=
EXTT18=
EXTT19=
EXTT20=
PLAYORDER=
